# xmcd
#
# Track frame offsets: 
#        150
#        10463
#        30485
#        47339
#        67944
#        83354
#        97124
#        137017
#        149417
#        161849
#        173127
#        186629
#
# Disc length: 2634 seconds
#
# Revision: 0
# Processed by: cddbd v1.5.2PL0 Copyright (c) Steve Scherf et al.
# Submitted via: ExactAudioCopy v1.0b3
#
DISCID=9d0a480c
DTITLE=Colin McCaffrey - Tired of Town
DYEAR=1900
DGENRE=Blues
TTITLE0=Honeysuckle Rose
TTITLE1=Tired of Town
TTITLE2=Gypsy
TTITLE3=Bye Bye Blackbird
TTITLE4=Mississippi Delta Blues
TTITLE5=Old Guitar
TTITLE6=Winderness Road
TTITLE7=Everybody Loves Her
TTITLE8=The Bottle Let Me Down
TTITLE9=Weary Blues From Waitin'
TTITLE10=First Goodbye
TTITLE11=September Son
EXTD=
EXTT0=
EXTT1=
EXTT2=
EXTT3=
EXTT4=
EXTT5=
EXTT6=
EXTT7=
EXTT8=
EXTT9=
EXTT10=
EXTT11=
PLAYORDER=
